Coordinates
version=1
nRows=29
nColumns=24
inDegrees=yes

Units are S.I. units (second, meters, Newtons, ...)
Angles are in degrees.

endheader
time	pelvis_tilt	pelvis_list	pelvis_rotation	pelvis_tx	pelvis_ty	pelvis_tz	hip_flexion_r	hip_adduction_r	hip_rotation_r	knee_angle_r	ankle_angle_r	subtalar_angle_r	mtp_angle_r	hip_flexion_l	hip_adduction_l	hip_rotation_l	knee_angle_l	ankle_angle_l	subtalar_angle_l	mtp_angle_l	lumbar_extension	lumbar_bending	lumbar_rotation
      2.29000000	     13.52444664	      3.72842968	     -2.55972246	      0.46292660	      0.95322041	      0.24559672	      8.92647860	     -6.70299576	     -1.76748166	    -67.86011386	     18.83732455	      7.02884623	     49.48030277	     -7.06113770	      6.51973886	    -11.93023729	    -14.85642871	     20.84359455	     10.58359068	     14.60805296	    -28.81235612	     -4.83230394	      4.85677008
      2.29500000	     13.73941518	      3.69077206	     -2.49853341	      0.46942914	      0.95386724	      0.24517616	      9.30804027	     -6.65861506	     -1.95456196	    -67.21792629	     19.22260933	      7.16581188	     49.15096133	     -8.05922173	      6.54006700	    -12.02232620	    -14.23539853	     21.03744408	     10.97263646	     14.43898714	    -29.03989125	     -4.69513144	      4.76299549
      2.30000000	     13.73436234	      3.81031217	     -2.35324112	      0.47593255	      0.95410823	      0.24469272	      9.91406363	     -6.82111828	     -2.23199351	    -66.53540677	     19.54277873	      7.19503590	     49.07289398	     -8.80492400	      6.70119436	    -11.91848795	    -13.63596649	     21.11200860	     11.37376014	     14.40035882	    -29.02101854	     -4.68584223	      4.43172943
      2.30500000	     14.01244777	      3.84049296	     -2.13281001	      0.48242936	      0.95479758	      0.24404149	     10.10211649	     -6.91439115	     -2.60343678	    -65.67494263	     19.90341612	      7.40937202	     48.84373557	     -9.90987830	      6.78732981	    -11.61045787	    -12.94451965	     21.19195909	     11.59854188	     14.29298951	    -29.32285072	     -4.52899354	      4.06569968
      2.31000000	     14.12618146	      3.83538200	     -2.10701101	      0.48887004	      0.95508494	      0.24386233	     10.55243054	     -6.89298753	     -2.74733115	    -64.85485528	     20.15070725	      7.38815338	     48.59423184	    -10.73691452	      6.82647741	    -11.69441599	    -12.39146721	     21.28151104	     11.91471199	     14.22536460	    -29.44416042	     -4.45331030	      3.92223429
      2.31500000	     14.07319132	      3.83000914	     -2.09678717	      0.49498331	      0.95498947	      0.24373610	     11.20345084	     -6.82087289	     -2.79224683	    -63.98922704	     20.44338652	      7.38717302	     48.56017776	    -11.35419279	      6.88071887	    -11.61273222	    -11.89511214	     21.44879235	     12.00460800	     14.20381693	    -29.40805008	     -4.39023964	      3.83892459
      2.32000000	     14.28098211	      3.82409458	     -1.98385535	      0.50126756	      0.95519701	      0.24319855	     11.48619501	     -6.86611842	     -3.13664092	    -63.03312125	     20.74729002	      7.38096518	     48.20690034	    -12.34909515	      6.97752630	    -11.21734008	    -11.23908893	     21.52479209	     11.81267757	     13.76956552	    -29.65278462	     -4.23979200	      3.61200055
      2.32500000	     14.44802605	      3.84018195	     -1.89430261	      0.50766667	      0.95524387	      0.24274507	     11.81599942	     -6.92597929	     -3.41450193	    -62.07822979	     20.88334676	      7.31327952	     48.00665101	    -13.24263949	      7.07496619	    -10.90768279	    -10.72068267	     21.65913671	     11.69422999	     13.48016269	    -29.83247360	     -4.14145199	      3.44831578
      2.33000000	     14.48392395	      3.90336206	     -1.67671879	      0.51386271	      0.95509340	      0.24236653	     12.28851874	     -7.00484743	     -3.69153956	    -61.09441820	     20.92628712	      7.17638914	     47.88672866	    -13.91317445	      7.16030809	    -10.42253652	    -10.31304274	     21.83096552	     11.48912819	     13.21645458	    -29.92033086	     -4.05636866	      3.08450596
      2.33500000	     14.62946509	      3.91973008	     -1.49731007	      0.52014333	      0.95502554	      0.24181809	     12.52551943	     -7.04372786	     -3.88235518	    -59.89347893	     21.28076125	      7.60261372	     47.58701285	    -14.76831421	      7.23948387	     -9.90182031	     -9.77168691	     21.85225832	     11.16535878	     12.90970999	    -30.09905195	     -3.90651279	      2.80231502
      2.34000000	     14.77591338	      3.89008510	     -1.33892846	      0.52642948	      0.95487294	      0.24140627	     12.74742498	     -7.01320044	     -4.11671025	    -58.65307002	     21.55687098	      7.82861085	     46.51473765	    -15.51954466	      7.22997745	     -9.60782229	     -9.44863332	     22.10166209	     11.10342558	     12.05949720	    -30.27847096	     -3.74098308	      2.66041283
      2.34500000	     14.93254072	      3.77969644	     -1.16235253	      0.53282054	      0.95476504	      0.24116119	     12.87434388	     -6.86208466	     -4.31915863	    -57.26643986	     21.76567540	      7.89465573	     46.37914035	    -16.20933270	      7.07988473	     -9.54885115	     -9.26801623	     22.41560246	     11.37240898	     11.95148013	    -30.46506556	     -3.48870182	      2.43720801
      2.35000000	     15.08767507	      3.69923667	     -0.92351573	      0.53916498	      0.95458879	      0.24100135	     13.00554000	     -6.75212176	     -4.64170547	    -55.89750707	     21.76128379	      7.59748218	     46.21648312	    -16.88717083	      6.94015452	     -9.43819412	     -9.10907361	     22.70779165	     11.49925814	     11.79531323	    -30.66130156	     -3.26288470	      2.12740542
      2.35500000	     15.33753176	      3.63153331	     -0.71035457	      0.54545332	      0.95448891	      0.24079404	     12.98688696	     -6.65800635	     -4.94644522	    -54.43779268	     21.84901411	      7.40441618	     45.59012730	    -17.69721941	      6.83344230	     -9.14737121	     -8.91350988	     23.05147553	     11.53641191	      9.76434576	    -30.96135447	     -3.04893217	      1.86624726
      2.36000000	     15.52440151	      3.49287317	     -0.51825594	      0.55179502	      0.95426742	      0.24062561	     12.99467224	     -6.47428658	     -5.21832200	    -52.86762695	     21.82514181	      7.22263574	     45.48400728	    -18.40745491	      6.64981292	     -8.93961456	     -8.78480149	     23.35043107	     11.55058656	      9.67551644	    -31.17715211	     -2.77516997	      1.65424701
      2.36500000	     15.66064734	      3.49186069	     -0.35136642	      0.55788832	      0.95385033	      0.24035445	     13.08863404	     -6.45897821	     -5.44256518	    -51.29493125	     21.79983290	      7.13054153	     45.38530360	    -19.04734379	      6.63281466	     -8.62203510	     -8.62582572	     23.54778468	     11.42510652	      9.55646894	    -31.38407002	     -2.64778224	      1.43300448
      2.37000000	     15.73105463	      3.56145110	     -0.22706182	      0.56402414	      0.95325026	      0.24015147	     13.26249868	     -6.52738028	     -5.62593045	    -49.73171840	     21.71905800	      7.02041124	     45.25177274	    -19.60167265	      6.69012476	     -8.31611807	     -8.49899312	     23.76817789	     11.27371685	      9.32483349	    -31.50788377	     -2.60217030	      1.22821512
      2.37500000	     15.80211134	      3.55144965	      0.10710417	      0.57017894	      0.95271581	      0.23983642	     13.31648510	     -6.52632934	     -6.02141506	    -48.04446169	     21.61266195	      6.93473779	     44.82786694	    -20.13128085	      6.56812941	     -7.84152799	     -8.45584098	     24.18403019	     11.32208889	      7.06248656	    -31.64395849	     -2.38687063	      0.88506081
      2.38000000	     15.92184408	      3.43049837	      0.25569693	      0.57647260	      0.95222319	      0.24002041	     13.28105366	     -6.30080512	     -6.13739763	    -46.23546902	     21.32938884	      6.56866710	     44.76425093	    -20.66998974	      6.35175122	     -7.77928882	     -8.50784430	     24.57351269	     11.50168997	      7.11642725	    -31.81724303	     -2.18210263	      0.76034068
      2.38500000	     16.11408051	      3.29457902	      0.29141607	      0.58274175	      0.95178382	      0.24038724	     13.14771299	     -6.01339162	     -6.11507687	    -44.36227475	     20.93682092	      5.96844483	     44.69863108	    -21.31540558	      6.15867430	     -7.76934883	     -8.49698119	     24.94247284	     11.56160354	      7.20981209	    -32.05484171	     -2.01608390	      0.75160181
      2.39000000	     16.32864668	      3.19351864	      0.43901024	      0.58905935	      0.95135430	      0.24048518	     12.92702163	     -5.80764418	     -6.28048358	    -42.42705018	     20.59964144	      5.39226179	     44.64231546	    -21.98681268	      5.96790422	     -7.63478287	     -8.48966959	     25.26797255	     11.72790778	      7.24216382	    -32.32700136	     -1.81640649	      0.56236278
      2.39500000	     16.52028371	      3.15618784	      0.68528401	      0.59543801	      0.95085885	      0.24037284	     12.65994113	     -5.71719404	     -6.55553307	    -40.40833959	     20.34244840	      5.04706207	     44.66284206	    -22.65153473	      5.81300651	     -7.33563482	     -8.45094273	     25.57988083	     11.82186499	      7.17110216	    -32.56423794	     -1.62018629	      0.25517208
      2.40000000	     16.59539864	      3.14054057	      0.90512788	      0.60172312	      0.95016370	      0.24039562	     12.53612389	     -5.61449692	     -6.70754965	    -38.40441543	     19.93852977	      4.53542508	     44.65922649	    -23.15750333	      5.68163048	     -6.98234478	     -8.46675855	     25.91596850	     11.80063890	      7.07319093	    -32.68898637	     -1.46981637	     -0.03509154
      2.40500000	     16.65441184	      3.07100478	      1.08512466	      0.60792339	      0.94947453	      0.24055267	     12.36229430	     -5.40310393	     -6.70917550	    -36.23499732	     19.56982977	      3.96606888	     44.51235643	    -23.63249944	      5.50577871	     -6.72515527	     -8.49090293	     26.20816139	     11.73248050	      6.98919745	    -32.81024563	     -1.30629765	     -0.17774087
      2.41000000	     16.74600889	      2.98639985	      1.22053003	      0.61417052	      0.94876802	      0.24075744	     12.12626381	     -5.16487619	     -6.65975152	    -34.02593769	     19.13457658	      3.38230849	     44.31547871	    -24.12922457	      5.31931706	     -6.55859099	     -8.55385211	     26.58467814	     11.80696949	      6.93805052	    -32.95253300	     -1.12776646	     -0.31791563
      2.41500000	     16.83275171	      2.92831279	      1.40660035	      0.62040069	      0.94811041	      0.24095687	     11.82452138	     -4.95564030	     -6.58415766	    -31.72412767	     18.64401658	      2.96927808	     44.11489999	    -24.58837187	      5.13012108	     -6.36703237	     -8.67172333	     26.89879193	     11.87210678	      6.89684075	    -33.09724750	     -0.96614185	     -0.51867555
      2.42000000	     16.87161686	      2.81698896	      1.52338800	      0.62673963	      0.94731047	      0.24123496	     11.54426838	     -4.67558720	     -6.38224034	    -29.36370958	     17.98253134	      2.65208696	     44.17236714	    -25.03114010	      4.91946480	     -6.31236764	     -8.73629186	     27.24933913	     12.00893086	      6.84269180	    -33.17733237	     -0.79631399	     -0.62002702
      2.42500000	     16.82808681	      2.77881223	      1.59765527	      0.63299003	      0.94629078	      0.24145905	     11.39039961	     -4.48552995	     -6.06849418	    -27.07255482	     17.24028839	      2.48704108	     44.11704227	    -25.38913489	      4.81693495	     -6.16236397	     -8.78217974	     27.57886193	     11.96963916	      6.85133682	    -33.18357249	     -0.70289444	     -0.71073083
      2.43000000	     16.88381100	      2.77967954	      1.73099957	      0.63915377	      0.94544092	      0.24182681	     11.05894773	     -4.34310449	     -5.83336547	    -24.71860714	     16.46140708	      2.33136454	     44.15415412	    -25.81152825	      4.69593462	     -6.06790556	     -8.90310683	     27.87846363	     12.12825920	      6.87133036	    -33.30181979	     -0.62832467	     -0.95274615
